<svg xmlns="http://www.w3.org/2000/svg" viewBox="0 0 64 52"><defs><style>.cls-1{fill:#925df9;}.cls-2{fill:#ebeff1;}.cls-3{fill:#cfd8dd;}.cls-4{fill:#b0bec5;}</style></defs><title>Book Open</title><g id="Layer_2" data-name="Layer 2"><g id="Layer_1-2" data-name="Layer 1"><path class="cls-1" d="M60,4H4A4,4,0,0,0,0,8V46a4,4,0,0,0,4,4H28a2,2,0,0,0,2,2h4a2,2,0,0,0,2-2H60a4,4,0,0,0,4-4V8A4,4,0,0,0,60,4Z"/><path class="cls-2" d="M28,0H4V46H28a4,4,0,0,1,4,4V4A4,4,0,0,0,28,0Z"/><path class="cls-3" d="M36,0a4,4,0,0,0-4,4V50a4,4,0,0,1,4-4H60V0Z"/><rect class="cls-3" x="10" y="6" width="16" height="2"/><rect class="cls-3" x="10" y="10" width="16" height="2"/><rect class="cls-3" x="10" y="14" width="16" height="2"/><rect class="cls-3" x="10" y="20" width="16" height="2"/><rect class="cls-3" x="10" y="24" width="16" height="2"/><rect class="cls-3" x="10" y="30" width="16" height="2"/><rect class="cls-3" x="10" y="34" width="16" height="2"/><rect class="cls-3" x="10" y="38" width="16" height="2"/><rect class="cls-4" x="38" y="6" width="16" height="2"/><rect class="cls-4" x="38" y="12" width="16" height="2"/><rect class="cls-4" x="38" y="16" width="16" height="2"/><rect class="cls-4" x="38" y="22" width="16" height="2"/><rect class="cls-4" x="38" y="26" width="16" height="2"/><rect class="cls-4" x="38" y="30" width="16" height="2"/><rect class="cls-4" x="38" y="34" width="16" height="2"/><rect class="cls-4" x="38" y="38" width="16" height="2"/></g></g></svg>